<?xml version="1.0" standalone="no"?><!DOCTYPE svg PUBLIC "-//W3C//DTD SVG 1.1//EN" "http://www.w3.org/Graphics/SVG/1.1/DTD/svg11.dtd"><svg t="1683792075166" class="icon" viewBox="0 0 1024 1024" version="1.1" xmlns="http://www.w3.org/2000/svg" p-id="2889" id="mx_n_1683792075168" xmlns:xlink="http://www.w3.org/1999/xlink" width="48" height="48"><path d="M930.393523 277.320133H834.720373a149.966372 149.966372 0 0 0 50.046183-66.058666 176.940805 176.940805 0 0 0-16.586407-146.350649A130.16599 130.16599 0 0 0 778.590594 3.443545a202.99696 202.99696 0 0 0-166.437994 47.004385 350.667635 350.667635 0 0 0-90.45044 131.428623c-2.525266 5.739241-6.485343 15.840306-10.789774 27.950104a509.242869 509.242869 0 0 0-10.789773-27.950104A350.093711 350.093711 0 0 0 409.672172 50.44793a202.882175 202.882175 0 0 0-166.437994-47.004385 130.682521 130.682521 0 0 0-89.589554 61.467273 177.514729 177.514729 0 0 0-16.586407 146.350649 148.875916 148.875916 0 0 0 50.046183 66.058666h-91.827859a42.183423 42.183423 0 0 0-42.183422 41.379929v204.43177a41.839068 41.839068 0 0 0 42.183422 40.92079h6.65752v418.964605a41.839068 41.839068 0 0 0 42.183423 40.978182h737.435097a40.174688 40.174688 0 0 0 40.748612-40.978182V563.995229h8.149722a40.174688 40.174688 0 0 0 40.69122-40.920789V318.642669a40.92079 40.92079 0 0 0-40.69122-41.379928z m-360.596522 57.10545v172.177235h-114.784824v-172.177235z m0 229.569646v401.746882h-114.784824v-401.746882z m344.35447-57.392411h-286.962059v-172.177235h286.962059z m-330.695076-303.031934a276.000108 276.000108 0 0 1 69.444818-102.158493 135.847838 135.847838 0 0 1 112.546519-34.435447 66.689982 66.689982 0 0 1 45.340005 28.696206 114.153507 114.153507 0 0 1 12.8559 92.688745 104.22462 104.22462 0 0 1-66.460412 57.392412 577.425054 577.425054 0 0 1-196.683795 28.064889 351.241559 351.241559 0 0 1 22.956965-70.535274zM211.323998 95.787935a66.173451 66.173451 0 0 1 45.45479-28.696206 97.165353 97.165353 0 0 1 20.431698-2.066127 147.728068 147.728068 0 0 1 91.827859 36.386789 274.62269 274.62269 0 0 1 69.444818 102.158493 331.555962 331.555962 0 0 1 22.956964 70.822236 577.654623 577.654623 0 0 1-196.683794-28.064889 104.626366 104.626366 0 0 1-66.460413-57.392412 112.776089 112.776089 0 0 1 12.741115-92.975707zM110.657708 334.425583h286.962058v172.177235h-286.962058z m57.392411 229.569646h229.569647v401.746882h-229.569647z m688.70894 401.746882h-229.569647v-401.746882h229.569647z m0 0" p-id="2890"></path></svg>